<svg xmlns="http://www.w3.org/2000/svg" width="320" height="260" viewBox="0 0 320 260">
  <rect width="320" height="260" fill="none"/>
  <g stroke-linecap="round" stroke-linejoin="round" stroke-width="9" fill="none">
    <path d="M150 145 L150 55" stroke="#114dff"/>
    <path d="M150 55 L136 80 M150 55 L164 80" stroke="#114dff"/>
    <path d="M150 145 L245 145" stroke="#00e648"/>
    <path d="M245 145 L218 132 M245 145 L218 158" stroke="#00e648"/>
    <path d="M150 145 L85 212" stroke="#ff2020"/>
    <path d="M85 212 L93 180 M85 212 L118 203" stroke="#ff2020"/>
  </g>
  <text x="151" y="141" text-anchor="middle" font-family="Arial" font-size="34" font-weight="700" fill="#f5f7fb">Z</text>
  <text x="150" y="42" text-anchor="middle" font-family="Arial" font-size="28" font-weight="700" fill="#114dff">A</text>
  <text x="265" y="153" font-family="Arial" font-size="28" font-weight="700" fill="#00e648">A</text>
  <text x="72" y="235" font-family="Arial" font-size="28" font-weight="700" fill="#ff2020">A</text>
  <path d="M38 64v-32h56M38 196v32h56M286 64v-32h-56M286 196v32h-56" stroke="#ffd400" stroke-width="8" fill="none"/>
</svg>
