<svg xmlns="http://www.w3.org/2000/svg" width="520" height="100" viewBox="0 0 520 100">
  <rect width="520" height="100" fill="none"/>
  <g fill="#0f141b">
    <rect x="10" y="10" width="8" height="80"/><rect x="25" y="10" width="4" height="80"/><rect x="40" y="10" width="12" height="80"/><rect x="60" y="10" width="6" height="80"/>
    <rect x="78" y="10" width="18" height="80"/><rect x="106" y="10" width="5" height="80"/><rect x="124" y="10" width="9" height="80"/><rect x="146" y="10" width="24" height="80"/>
    <rect x="180" y="10" width="6" height="80"/><rect x="196" y="10" width="14" height="80"/><rect x="222" y="10" width="4" height="80"/><rect x="238" y="10" width="18" height="80"/>
    <rect x="268" y="10" width="8" height="80"/><rect x="288" y="10" width="30" height="80"/><rect x="330" y="10" width="5" height="80"/><rect x="345" y="10" width="12" height="80"/>
    <rect x="370" y="10" width="22" height="80"/><rect x="404" y="10" width="7" height="80"/><rect x="425" y="10" width="15" height="80"/><rect x="455" y="10" width="6" height="80"/>
    <rect x="475" y="10" width="28" height="80"/>
  </g>
</svg>
